<svg xmlns="http://www.w3.org/2000/svg" viewBox="0 0 500 500"><g id="freepik--background-complete--inject-78"><path d="M427,199.65l-11.39-11.39H360.76V143.18h76.55v45l-10.31,0Zm-65.24-12.39H416l10,10v-10l10.31,0V144.18H361.76Z" style="fill:#ebebeb"></path><path d="M384.75,165.72a3.58,3.58,0,1,1-3.58-3.58A3.58,3.58,0,0,1,384.75,165.72Z" style="fill:#ebebeb"></path><path d="M402.62,165.72a3.58,3.58,0,1,1-3.58-3.58A3.59,3.59,0,0,1,402.62,165.72Z" style="fill:#ebebeb"></path><path d="M420.48,165.72a3.58,3.58,0,1,1-3.58-3.58A3.58,3.58,0,0,1,420.48,165.72Z" style="fill:#ebebeb"></path><path d="M73,263.24v-11.4l-10.31,0V206.76h76.55v45.08H84.39Zm-9.31-12.42,10.31,0v10l10-10h54.26V207.76H63.69Z" style="fill:#ebebeb"></path><path d="M115.25,229.3a3.58,3.58,0,1,0,3.58-3.58A3.58,3.58,0,0,0,115.25,229.3Z" style="fill:#ebebeb"></path><path d="M97.38,229.3a3.58,3.58,0,1,0,3.58-3.58A3.58,3.58,0,0,0,97.38,229.3Z" style="fill:#ebebeb"></path><path d="M79.52,229.3a3.58,3.58,0,1,0,3.58-3.58A3.58,3.58,0,0,0,79.52,229.3Z" style="fill:#ebebeb"></path></g><g id="freepik--Device--inject-78"><path d="M334.75,61.12H165.23a17.32,17.32,0,0,0-17.15,17.47v349A17.33,17.33,0,0,0,165.23,445H334.75a17.34,17.34,0,0,0,17.17-17.47v-349A17.33,17.33,0,0,0,334.75,61.12Zm6.45,355.65c0,9.19-6.88,16.62-15.37,16.62H174.18c-8.51,0-15.39-7.43-15.39-16.62V91.82c0-18.71,6.88-19.63,15.39-19.63h30.37c1.76,0,3.21,2,3.21,4.5v1.07c0,5.83,3.19,5.85,7.11,5.85h70.25c3.95,0,7.11,0,7.11-5.85V76.69c0-2.49,1.43-4.5,3.22-4.5h30.38c8.49,0,15.37,2.49,15.37,19.63Z" style="fill:#37474f"></path><path d="M259.58,76.33H240.41a1.18,1.18,0,0,1-1.18-1.18h0A1.18,1.18,0,0,1,240.41,74h19.17a1.18,1.18,0,0,1,1.18,1.19h0A1.18,1.18,0,0,1,259.58,76.33Z" style="fill:#263238"></path><path d="M341.2,91.82v325c0,9.19-6.88,16.62-15.36,16.62H174.18c-8.5,0-15.38-7.43-15.38-16.62V91.82c0-18.71,6.88-19.63,15.38-19.63h30.37c1.77,0,3.21,2,3.21,4.5v1.07c0,5.83,3.19,5.85,7.11,5.85h70.25c3.95,0,7.11,0,7.11-5.85V76.69c0-2.49,1.43-4.5,3.22-4.5h30.39C334.32,72.19,341.2,74.68,341.2,91.82Z" style="fill:#fff"></path><path d="M341.2,91.82v32.45H158.8V91.82c0-18.71,6.88-19.63,15.38-19.63h30.37c1.77,0,3.21,2,3.21,4.5v1.07c0,5.82,3.19,5.84,7.11,5.84h70.26c3.95,0,7.11,0,7.11-5.84V76.69c0-2.49,1.42-4.5,3.22-4.5h30.38C334.32,72.19,341.2,74.68,341.2,91.82Z" style="fill:#AA9EE8"></path><polygon points="177.26 113.51 171.87 108.46 177.26 103.42 178.09 104.31 173.66 108.46 178.09 112.62 177.26 113.51" style="fill:#fff"></polygon><path d="M327.07,105.32a1.06,1.06,0,1,1-1.06-1.06A1.06,1.06,0,0,1,327.07,105.32Z" style="fill:#fff"></path><path d="M327.07,109.09A1.06,1.06,0,1,1,326,108,1.05,1.05,0,0,1,327.07,109.09Z" style="fill:#fff"></path><path d="M327.07,112.86A1.06,1.06,0,1,1,326,111.8,1.05,1.05,0,0,1,327.07,112.86Z" style="fill:#fff"></path><g id="freepik--u5Zjqx--inject-78"><path d="M199.31,79.49l-.29.29c-.06.06-.11.12-.17.17a4,4,0,0,0-5.66,0,1.29,1.29,0,0,0-.16-.17c-.09-.1-.19-.19-.29-.29h0l0,0,.37-.33a4.06,4.06,0,0,1,.86-.55,4.56,4.56,0,0,1,1.13-.38l.57-.07h.5l.39,0a3.76,3.76,0,0,1,1,.25,3.81,3.81,0,0,1,.71.33,3.85,3.85,0,0,1,.67.47l.31.28Z" style="fill:#fff"></path><path d="M194.12,80.87l-.46-.46a3.36,3.36,0,0,1,4.73,0l-.47.46a2.7,2.7,0,0,0-3.8,0Z" style="fill:#fff"></path><path d="M197.46,81.34l-.47.46a1.34,1.34,0,0,0-1-.4,1.35,1.35,0,0,0-1,.4l-.46-.46A2,2,0,0,1,197.46,81.34Z" style="fill:#fff"></path><path d="M196.44,82.22a.41.41,0,0,1-.42.41.41.41,0,0,1-.41-.41.41.41,0,0,1,.41-.42A.42.42,0,0,1,196.44,82.22Z" style="fill:#fff"></path></g><path d="M170.69,80.38a1.21,1.21,0,1,1,1.21,1.21A1.21,1.21,0,0,1,170.69,80.38Z" style="fill:#fff"></path><path d="M174.5,80.38a1.21,1.21,0,1,1,1.21,1.21A1.21,1.21,0,0,1,174.5,80.38Z" style="fill:#fff"></path><path d="M178.3,80.38a1.21,1.21,0,1,1,1.21,1.21A1.21,1.21,0,0,1,178.3,80.38Z" style="fill:#fff"></path><path d="M182.11,80.38a1.21,1.21,0,1,1,1.21,1.21A1.21,1.21,0,0,1,182.11,80.38Z" style="fill:#fff"></path><path d="M185.92,80.38a1.21,1.21,0,1,1,1.21,1.21A1.21,1.21,0,0,1,185.92,80.38Z" style="fill:#fff"></path><path d="M327.52,83h-9.85V78.45h9.85Zm-9.34-.52H327V79h-8.82Z" style="fill:#fff"></path><rect x="318.49" y="79.23" width="6.34" height="3.01" style="fill:#fff"></rect><rect x="327.52" y="79.52" width="0.88" height="2.44" style="fill:#fff"></rect><polygon points="182.03 415.83 181.14 415.83 181.14 419.93 179.47 419.93 179.47 417.84 176.52 417.84 176.52 419.93 174.86 419.93 174.86 415.83 173.97 415.83 178 411.67 182.03 415.83" style="fill:#ebebeb"></polygon><rect x="316.69" y="411.67" width="9.72" height="1.39" style="fill:#ebebeb"></rect><rect x="316.69" y="415.1" width="9.72" height="1.39" style="fill:#ebebeb"></rect><rect x="316.69" y="418.54" width="9.72" height="1.39" style="fill:#ebebeb"></rect><polygon points="253.04 415.94 250.28 418.89 247.52 415.94 248 415.48 250.28 417.91 252.56 415.48 253.04 415.94" style="fill:#ebebeb"></polygon><path d="M250.28,421.94a5,5,0,1,1,5-5A5,5,0,0,1,250.28,421.94Zm0-9.38a4.36,4.36,0,1,0,4.36,4.36A4.37,4.37,0,0,0,250.28,412.56Z" style="fill:#ebebeb"></path><path d="M232.42,106.13v5.22a.5.5,0,0,1-.5.48.49.49,0,0,1-.49-.48v-3.73l-1.27,1.77a.48.48,0,0,1-.4.21h0a.49.49,0,0,1-.4-.21l-1.27-1.77v3.73a.49.49,0,0,1-1,0v-5.22a.49.49,0,0,1,.49-.49h0a.45.45,0,0,1,.39.21l1.76,2.44,1.76-2.44a.48.48,0,0,1,.4-.21h0A.51.51,0,0,1,232.42,106.13Z" style="fill:#fff"></path><path d="M234.12,111.35v-5.22a.48.48,0,0,1,.49-.49h2.89a.49.49,0,0,1,0,1h-2.4v1.62h2.06a.5.5,0,0,1,.49.49.49.49,0,0,1-.49.49H235.1v1.63h2.4a.49.49,0,0,1,0,1h-2.87s0,0,0,0h0A.48.48,0,0,1,234.12,111.35Z" style="fill:#fff"></path><path d="M239.17,110.29a.47.47,0,0,1,.65-.06,2.86,2.86,0,0,0,1.69.68,1.91,1.91,0,0,0,1.1-.32A.8.8,0,0,0,243,110a.44.44,0,0,0-.08-.28.81.81,0,0,0-.26-.27,3.39,3.39,0,0,0-1.21-.41h0a4.62,4.62,0,0,1-1.14-.35,1.85,1.85,0,0,1-.82-.69,1.29,1.29,0,0,1-.21-.72,1.66,1.66,0,0,1,.71-1.3,2.63,2.63,0,0,1,1.53-.46,3.48,3.48,0,0,1,1.93.7.46.46,0,0,1,.12.63.44.44,0,0,1-.63.13,2.55,2.55,0,0,0-1.42-.56,1.66,1.66,0,0,0-1,.3.71.71,0,0,0-.34.56.38.38,0,0,0,.07.24.83.83,0,0,0,.23.23,3.07,3.07,0,0,0,1.11.39h0a5.83,5.83,0,0,1,1.22.37,2.06,2.06,0,0,1,.88.74,1.37,1.37,0,0,1,.22.75,1.7,1.7,0,0,1-.77,1.37,2.72,2.72,0,0,1-1.63.5,3.76,3.76,0,0,1-2.27-.88A.48.48,0,0,1,239.17,110.29Z" style="fill:#fff"></path><path d="M245,110.29a.46.46,0,0,1,.64-.06,2.89,2.89,0,0,0,1.69.68,2,2,0,0,0,1.11-.32.82.82,0,0,0,.38-.64.51.51,0,0,0-.08-.28.76.76,0,0,0-.27-.27,3.32,3.32,0,0,0-1.21-.41h0a4.84,4.84,0,0,1-1.15-.35,2,2,0,0,1-.82-.69,1.37,1.37,0,0,1-.2-.72,1.66,1.66,0,0,1,.71-1.3,2.59,2.59,0,0,1,1.53-.46,3.44,3.44,0,0,1,1.92.7.46.46,0,0,1,.13.63.44.44,0,0,1-.63.13,2.55,2.55,0,0,0-1.42-.56,1.7,1.7,0,0,0-1,.3.72.72,0,0,0-.33.56.45.45,0,0,0,.06.24.89.89,0,0,0,.24.23,3.07,3.07,0,0,0,1.11.39h0a5.65,5.65,0,0,1,1.22.37,2.09,2.09,0,0,1,.89.74,1.46,1.46,0,0,1,.21.75,1.71,1.71,0,0,1-.76,1.37,2.75,2.75,0,0,1-1.64.5,3.73,3.73,0,0,1-2.26-.88A.47.47,0,0,1,245,110.29Z" style="fill:#fff"></path><path d="M254.11,110.37H252l-.43,1.15a.49.49,0,0,1-.46.31l-.17,0a.5.5,0,0,1-.29-.64l1.95-5.21a.51.51,0,0,1,.47-.31.49.49,0,0,1,.47.31l2,5.21a.51.51,0,0,1-.3.64l-.16,0a.48.48,0,0,1-.46-.31Zm-.36-1-.72-1.9-.71,1.9Z" style="fill:#fff"></path><path d="M256.11,108.66a3.27,3.27,0,0,1,5.28-2.5.5.5,0,0,1,.1.71.52.52,0,0,1-.72.08,2.29,2.29,0,0,0-1.39-.48,2.16,2.16,0,0,0-1.59.65,2.08,2.08,0,0,0,0,3.06,2.16,2.16,0,0,0,1.59.65,2.47,2.47,0,0,0,1.21-.34v-1.21h-1.27a.51.51,0,0,1-.5-.51.49.49,0,0,1,.5-.49h1.76a.5.5,0,0,1,.52.49v2a.66.66,0,0,1,0,.15l0,0h0a.37.37,0,0,1-.17.21,3.26,3.26,0,0,1-5.27-2.48Z" style="fill:#fff"></path><path d="M263.59,111.35v-5.22a.49.49,0,0,1,.49-.49H267a.49.49,0,1,1,0,1h-2.39v1.62h2.06a.5.5,0,0,1,.48.49.49.49,0,0,1-.48.49h-2.06v1.63H267a.49.49,0,1,1,0,1h-2.86s0,0,0,0h0A.49.49,0,0,1,263.59,111.35Z" style="fill:#fff"></path><path d="M268.65,110.29a.46.46,0,0,1,.64-.06,2.86,2.86,0,0,0,1.69.68,2,2,0,0,0,1.11-.32.82.82,0,0,0,.38-.64.51.51,0,0,0-.08-.28,1,1,0,0,0-.27-.27,3.32,3.32,0,0,0-1.21-.41h0a4.9,4.9,0,0,1-1.14-.35,1.91,1.91,0,0,1-.82-.69,1.37,1.37,0,0,1-.2-.72,1.68,1.68,0,0,1,.7-1.3,2.63,2.63,0,0,1,1.53-.46,3.48,3.48,0,0,1,1.93.7.46.46,0,0,1,.13.63.44.44,0,0,1-.63.13,2.58,2.58,0,0,0-1.43-.56,1.69,1.69,0,0,0-1,.3.69.69,0,0,0-.33.56.38.38,0,0,0,.06.24.76.76,0,0,0,.24.23,3.08,3.08,0,0,0,1.1.39h0a5.65,5.65,0,0,1,1.22.37,2.15,2.15,0,0,1,.89.74,1.46,1.46,0,0,1,.21.75,1.71,1.71,0,0,1-.76,1.37,2.77,2.77,0,0,1-1.64.5,3.73,3.73,0,0,1-2.26-.88A.47.47,0,0,1,268.65,110.29Z" style="fill:#fff"></path></g><g id="freepik--speech-bubbles--inject-78"><g style="opacity:0.9"><polygon points="456.11 260.25 220.44 260.25 220.44 210.66 431.19 210.66 431.19 244.33 456.11 260.25" style="fill:#fff"></polygon><path d="M456.11,260.75H219.94V210.16H431.69v33.9l26.13,16.69Zm-235.17-1H454.4l-23.71-15.14V211.16H220.94Z" style="fill:#AA9EE8"></path></g><rect x="236.41" y="222.34" width="168.94" height="2" style="fill:#AA9EE8"></rect><rect x="236.41" y="233.65" width="127.62" height="2" style="fill:#AA9EE8"></rect><rect x="236.41" y="244.95" width="157.89" height="2" style="fill:#AA9EE8"></rect><g style="opacity:0.9"><polygon points="456.11 101.3 220.44 101.3 220.44 51.71 431.19 51.71 431.19 85.38 456.11 101.3" style="fill:#fff"></polygon><path d="M457.82,101.8H219.94V51.21H431.69V85.1Zm-236.88-1H454.4L430.69,85.65V52.21H220.94Z" style="fill:#AA9EE8"></path></g><rect x="236.41" y="63.38" width="168.94" height="2" style="fill:#AA9EE8"></rect><rect x="236.41" y="74.69" width="127.62" height="2" style="fill:#AA9EE8"></rect><rect x="236.41" y="86" width="157.89" height="2" style="fill:#AA9EE8"></rect><polygon points="68.81 349.23 253.86 349.23 253.86 280.64 253.86 280.64 68.81 280.64 68.81 349.23" style="fill:#AA9EE8;opacity:0.8"></polygon><polygon points="43.89 349.23 68.81 324.31 68.81 349.23 43.89 349.23" style="fill:#AA9EE8;opacity:0.8"></polygon><rect x="80.58" y="291.33" width="161.51" height="2" style="fill:#fff"></rect><rect x="80.58" y="302.63" width="122.02" height="2" style="fill:#fff"></rect><rect x="80.58" y="313.94" width="150.95" height="2" style="fill:#fff"></rect><rect x="80.58" y="325.25" width="92.03" height="2" style="fill:#fff"></rect><rect x="80.58" y="336.55" width="161.51" height="2" style="fill:#fff"></rect><polygon points="68.81 190.28 283.61 190.28 283.61 121.69 283.61 121.69 68.81 121.69 68.81 190.28" style="fill:#AA9EE8;opacity:0.8"></polygon><polygon points="43.89 190.28 68.81 165.35 68.81 190.28 43.89 190.28" style="fill:#AA9EE8;opacity:0.8"></polygon><rect x="82.47" y="132.37" width="187.48" height="2" style="fill:#fff"></rect><rect x="82.47" y="143.68" width="141.63" height="2" style="fill:#fff"></rect><rect x="82.47" y="154.98" width="175.22" height="2" style="fill:#fff"></rect><rect x="82.47" y="166.29" width="106.83" height="2" style="fill:#fff"></rect><rect x="82.47" y="177.6" width="187.48" height="2" style="fill:#fff"></rect></g></svg>
