<svg  viewBox="0 0 24 24" fill="none" xmlns="http://www.w3.org/2000/svg">
<path d="M8.86821 4.09537C10.9378 2.02488 14.2938 2.02482 16.3633 4.09537C18.4329 6.16392 18.4323 9.51998 16.3633 11.5895L12.0782 15.8747C11.5576 16.3953 10.8955 16.6885 10.2159 16.7536C10.0217 16.7722 9.82605 16.7722 9.63188 16.7536C8.95217 16.6885 8.29022 16.3952 7.76957 15.8747C6.5797 14.6847 6.57963 12.756 7.76957 11.5661L11.8125 7.52213C12.1054 7.22946 12.5812 7.22941 12.8741 7.52213C13.1667 7.81483 13.1664 8.28975 12.8741 8.58267L8.83012 12.6266C8.22596 13.2308 8.22603 14.2099 8.83012 14.8141C9.43423 15.4181 10.4125 15.4179 11.0166 14.8141L15.3018 10.529C16.7391 9.09141 16.7848 6.78799 15.4375 5.29752L15.3028 5.15591C13.8191 3.67178 11.4134 3.67179 9.92973 5.15591L5.53618 9.54849C3.15468 11.9303 3.15472 15.7917 5.53618 18.1735C6.65222 19.2896 8.09369 19.883 9.55571 19.9528C9.75056 19.9621 9.94581 19.9621 10.1407 19.9528C11.6027 19.8831 13.0446 19.2896 14.1612 18.1735L20.4698 11.8649C20.5795 11.7552 20.7148 11.6863 20.8565 11.6588C20.9512 11.6405 21.0489 11.6405 21.1436 11.6588C21.2852 11.6863 21.4206 11.7552 21.5303 11.8649C21.8231 12.1577 21.823 12.6325 21.5303 12.9254L15.2217 19.234C13.8307 20.6246 12.0344 21.3639 10.2129 21.4508C9.96992 21.4624 9.72645 21.4624 9.48344 21.4508C7.66205 21.3639 5.86621 20.6246 4.47563 19.234C1.50838 16.2665 1.50835 11.4555 4.47563 8.48795L8.86821 4.09537Z" fill="currentColor"/>
</svg>
