<svg width="24" height="24" viewBox="0 0 24 24" fill="none" xmlns="http://www.w3.org/2000/svg">
<path fill-rule="evenodd" clip-rule="evenodd" d="M11.6328 2.25C16.6958 2.25022 20.7998 6.35486 20.7998 11.418C20.7997 13.7905 19.8978 15.9521 18.4189 17.5801L21.3164 20.4688C21.6097 20.7613 21.6099 21.237 21.3174 21.5303C21.0249 21.8233 20.55 21.8236 20.2568 21.5312L17.3213 18.6035C15.758 19.8431 13.7829 20.5858 11.6328 20.5859C6.56956 20.5859 2.4651 16.481 2.46484 11.418C2.46484 6.35472 6.56951 2.25 11.6328 2.25ZM11.6328 3.75C7.39793 3.75 3.96484 7.18316 3.96484 11.418C3.9651 15.6527 7.3982 19.0859 11.6328 19.0859C15.8671 19.0857 19.2996 15.6526 19.2998 11.418C19.2998 7.18329 15.8674 3.75022 11.6328 3.75Z" fill="#95969D"/>
</svg>
